<svg width="182" height="54" viewBox="0 0 182 54" fill="none" xmlns="http://www.w3.org/2000/svg">
<rect y="26" width="5" height="16" fill="white"/>
<rect x="10" y="21" width="5" height="21" fill="white"/>
<rect x="20" y="17" width="5" height="25" fill="white"/>
<path d="M33.36 42V12.6H44.616C46.38 12.6 47.948 12.95 49.32 13.65C50.72 14.322 51.826 15.288 52.638 16.548C53.45 17.808 53.856 19.334 53.856 21.126V21.672C53.856 23.436 53.436 24.962 52.596 26.25C51.784 27.51 50.678 28.476 49.278 29.148C47.878 29.82 46.324 30.156 44.616 30.156H36.888V42H33.36ZM36.888 26.964H44.238C46.114 26.964 47.598 26.502 48.69 25.578C49.782 24.626 50.328 23.296 50.328 21.588V21.168C50.328 19.46 49.782 18.144 48.69 17.22C47.626 16.268 46.142 15.792 44.238 15.792H36.888V26.964ZM56.6106 42V21.462H59.8446V23.982H60.4326C60.7966 23.086 61.3566 22.428 62.1126 22.008C62.8686 21.588 63.8626 21.378 65.0946 21.378H67.5306V24.402H64.8846C63.4006 24.402 62.1966 24.822 61.2726 25.662C60.3766 26.474 59.9286 27.748 59.9286 29.484V42H56.6106ZM79.0964 42.588C77.0244 42.588 75.1904 42.154 73.5944 41.286C72.0264 40.418 70.7944 39.2 69.8984 37.632C69.0304 36.036 68.5964 34.16 68.5964 32.004V31.458C68.5964 29.33 69.0304 27.468 69.8984 25.872C70.7944 24.276 72.0264 23.044 73.5944 22.176C75.1904 21.308 77.0244 20.874 79.0964 20.874C81.1684 20.874 82.9884 21.308 84.5564 22.176C86.1524 23.044 87.3844 24.276 88.2524 25.872C89.1484 27.468 89.5964 29.33 89.5964 31.458V32.004C89.5964 34.16 89.1484 36.036 88.2524 37.632C87.3844 39.2 86.1524 40.418 84.5564 41.286C82.9884 42.154 81.1684 42.588 79.0964 42.588ZM79.0964 39.606C81.2804 39.606 83.0164 38.92 84.3044 37.548C85.6204 36.148 86.2784 34.272 86.2784 31.92V31.542C86.2784 29.19 85.6204 27.328 84.3044 25.956C83.0164 24.556 81.2804 23.856 79.0964 23.856C76.9404 23.856 75.2044 24.556 73.8884 25.956C72.5724 27.328 71.9144 29.19 71.9144 31.542V31.92C71.9144 34.272 72.5724 36.148 73.8884 37.548C75.2044 38.92 76.9404 39.606 79.0964 39.606ZM93.4673 50.4V21.462H96.7013V24.864H97.2893C97.8213 23.828 98.6753 22.904 99.8513 22.092C101.055 21.28 102.721 20.874 104.849 20.874C106.613 20.874 108.223 21.308 109.679 22.176C111.163 23.016 112.339 24.22 113.207 25.788C114.103 27.356 114.551 29.246 114.551 31.458V32.004C114.551 34.188 114.117 36.078 113.249 37.674C112.381 39.27 111.205 40.488 109.721 41.328C108.265 42.168 106.641 42.588 104.849 42.588C103.421 42.588 102.203 42.392 101.195 42C100.215 41.636 99.4173 41.16 98.8013 40.572C98.1853 39.984 97.7093 39.382 97.3733 38.766H96.7853V50.4H93.4673ZM103.967 39.648C106.095 39.648 107.817 38.976 109.133 37.632C110.477 36.26 111.149 34.356 111.149 31.92V31.542C111.149 29.106 110.477 27.216 109.133 25.872C107.817 24.5 106.095 23.814 103.967 23.814C101.867 23.814 100.131 24.5 98.7593 25.872C97.4153 27.216 96.7433 29.106 96.7433 31.542V31.92C96.7433 34.356 97.4153 36.26 98.7593 37.632C100.131 38.976 101.867 39.648 103.967 39.648ZM118.397 42V12.6H121.715V24.738H122.303C122.583 24.122 123.003 23.548 123.563 23.016C124.151 22.456 124.893 21.994 125.789 21.63C126.713 21.266 127.875 21.084 129.275 21.084C130.815 21.084 132.187 21.42 133.391 22.092C134.623 22.736 135.603 23.688 136.331 24.948C137.059 26.18 137.423 27.72 137.423 29.568V42H134.105V29.82C134.105 27.776 133.587 26.292 132.551 25.368C131.543 24.444 130.171 23.982 128.435 23.982C126.447 23.982 124.823 24.626 123.563 25.914C122.331 27.202 121.715 29.12 121.715 31.668V42H118.397ZM144.204 50.4V47.46H155.964C156.776 47.46 157.182 47.04 157.182 46.2V38.724H156.594C156.314 39.312 155.88 39.9 155.292 40.488C154.732 41.048 153.99 41.51 153.066 41.874C152.142 42.21 150.98 42.378 149.58 42.378C148.096 42.378 146.724 42.056 145.464 41.412C144.232 40.768 143.252 39.816 142.524 38.556C141.824 37.296 141.474 35.756 141.474 33.936V21.462H144.792V33.684C144.792 35.7 145.296 37.17 146.304 38.094C147.34 39.018 148.726 39.48 150.462 39.48C152.422 39.48 154.032 38.836 155.292 37.548C156.552 36.26 157.182 34.342 157.182 31.794V21.462H160.5V46.788C160.5 47.908 160.178 48.79 159.534 49.434C158.918 50.078 158.008 50.4 156.804 50.4H144.204ZM172.903 42C171.727 42 170.817 41.678 170.173 41.034C169.557 40.39 169.249 39.508 169.249 38.388V24.36H163.075V21.462H169.249V14.154H172.567V21.462H179.287V24.36H172.567V37.884C172.567 38.724 172.973 39.144 173.785 39.144H178.363V42H172.903Z" fill="white"/>
</svg>
